<?xml version="1.0" encoding="UTF-8"?>
<svg id="Layer_1" xmlns="http://www.w3.org/2000/svg" xmlns:xlink="http://www.w3.org/1999/xlink" version="1.1" viewBox="0 0 42 56">
  <!-- Generator: Adobe Illustrator 29.5.1, SVG Export Plug-In . SVG Version: 2.1.0 Build 141)  -->
  <defs>
    <style>
      .st0, .st1, .st2, .st3, .st4, .st5 {
        fill: none;
      }

      .st1 {
        stroke-width: 4.5px;
      }

      .st1, .st2, .st3, .st4, .st5 {
        stroke: #231f20;
        stroke-linecap: round;
        stroke-miterlimit: 10;
      }

      .st2 {
        stroke-width: 3.9px;
      }

      .st3 {
        stroke-width: 3.8px;
      }

      .st4 {
        stroke-width: 5.1px;
      }

      .st6 {
        fill: #231f20;
      }

      .st5 {
        stroke-width: 4.1px;
      }

      .st7 {
        clip-path: url(#clippath-1);
      }

      .st8 {
        fill: #fff;
      }

      .st9 {
        clip-path: url(#clippath);
      }
    </style>
    <clipPath id="clippath">
      <rect class="st0" x="2.5" y="2.3" width="39" height="52.7"/>
    </clipPath>
    <clipPath id="clippath-1">
      <rect class="st0" x="2.5" y="2.3" width="39" height="52.7"/>
    </clipPath>
  </defs>
  <g id="Group_1745">
    <path id="Path_4282" d="M10.5,45.2h0Z"/>
    <g id="Group_1750">
      <g class="st9">
        <g id="Group_1749">
          <line id="Line_129" class="st1" x1="10.5" y1="45.2" x2="27.7" y2="45.2"/>
        </g>
      </g>
    </g>
    <path id="Path_4283" d="M5,52.5h0Z"/>
    <g id="Group_1752">
      <g class="st7">
        <g id="Group_1751">
          <line id="Line_130" class="st4" x1="5" y1="52.5" x2="39" y2="52.5"/>
          <path id="Path_4284" class="st2" d="M25.7,20.6h4.5c1.4,0,2.5,1.5,2.5,3.4v25.1c0,1.9-1.1,3.4-2.5,3.4h-4.5"/>
          <path id="Path_4285" class="st8" d="M19.1,33.6h0c-2.6,0-4.7-2.1-4.7-4.7v-15.7c0-2.6,2.1-4.7,4.7-4.7s4.7,2.1,4.7,4.7v15.7c0,2.6-2.1,4.7-4.7,4.7"/>
          <path id="Path_4286" class="st3" d="M19.1,33.6h0c-2.6,0-4.7-2.1-4.7-4.7v-15.7c0-2.6,2.1-4.7,4.7-4.7s4.7,2.1,4.7,4.7v15.7c0,2.6-2.1,4.7-4.7,4.7Z"/>
          <path id="Path_4287" class="st6" d="M16,7.6v-.4c0-1.6,1.3-2.8,2.8-2.8,0,0,0,0,0,0h.5c1.6,0,2.8,1.3,2.8,2.8h0v.4"/>
          <path id="Path_4288" class="st5" d="M16,7.6v-.4c0-1.6,1.3-2.8,2.8-2.8,0,0,0,0,0,0h.5c1.6,0,2.8,1.3,2.8,2.8h0v.4"/>
          <path id="Path_4289" class="st6" d="M22.2,33.6v.4c0,1.6-1.3,2.8-2.8,2.8h-.5c-1.6,0-2.8-1.3-2.8-2.8v-.4"/>
          <path id="Path_4290" class="st5" d="M22.2,33.6v.4c0,1.6-1.3,2.8-2.8,2.8h-.5c-1.6,0-2.8-1.3-2.8-2.8v-.4"/>
        </g>
      </g>
    </g>
  </g>
</svg>